<svg xmlns="http://www.w3.org/2000/svg" width="360" height="78" viewBox="0 0 360 78"><ellipse cx="180" cy="72" rx="165.6" ry="7" fill="#1d222b" opacity="0.22"/><path d="M 10 20 Q 180 2 350 20 L 344 64 Q 180 74 16 64 Z" fill="#8a5c2f" stroke="#1d222b" stroke-width="3" stroke-linejoin="round" stroke-linecap="round"/><path d="M 10 20 Q 180 2 350 20 L 347 28.08 Q 180 17.16 13 28.08 Z" fill="#b07c40" opacity="0.85"/><path d="M 22 24 q 3 14 0 28" fill="none" stroke="#5f3d1e" stroke-width="1.6" stroke-linejoin="round" stroke-linecap="round" opacity="0.5"/><path d="M 74.67 24 q 3 14 0 28" fill="none" stroke="#5f3d1e" stroke-width="1.6" stroke-linejoin="round" stroke-linecap="round" opacity="0.5"/><path d="M 127.33 24 q 3 14 0 28" fill="none" stroke="#5f3d1e" stroke-width="1.6" stroke-linejoin="round" stroke-linecap="round" opacity="0.5"/><path d="M 180 24 q 3 14 0 28" fill="none" stroke="#5f3d1e" stroke-width="1.6" stroke-linejoin="round" stroke-linecap="round" opacity="0.5"/><path d="M 232.67 24 q 3 14 0 28" fill="none" stroke="#5f3d1e" stroke-width="1.6" stroke-linejoin="round" stroke-linecap="round" opacity="0.5"/><path d="M 285.33 24 q 3 14 0 28" fill="none" stroke="#5f3d1e" stroke-width="1.6" stroke-linejoin="round" stroke-linecap="round" opacity="0.5"/><path d="M 338 24 q 3 14 0 28" fill="none" stroke="#5f3d1e" stroke-width="1.6" stroke-linejoin="round" stroke-linecap="round" opacity="0.5"/><path d="M 62 22 L 298 22 L 294 56 L 66 56 Z" fill="#efdfbb" stroke="#5f3d1e" stroke-width="2.6" stroke-linejoin="round" stroke-linecap="round"/><path d="M 62 22 L 298 22 L 297 28 L 63 28 Z" fill="#cdb98d" opacity="0.8"/><circle cx="72" cy="50" r="5" fill="none" stroke="#cdb98d" stroke-width="1.6"/><circle cx="288" cy="50" r="5" fill="none" stroke="#cdb98d" stroke-width="1.6"/><path d="M 36 18.560000000000002 C 53 18.560000000000002 57 26.560000000000002 57 38.56 C 57 56.56 48 66.56 36 70.56 C 24 66.56 15 56.56 15 38.56 C 15 26.560000000000002 19 18.560000000000002 36 18.560000000000002 Z" fill="#f2c14e" stroke="#1d222b" stroke-width="2.6" stroke-linejoin="round" stroke-linecap="round"/><path d="M 36 25.560000000000002 L 39.4 32.56 L 47 33.56 L 41 38.56 L 43 46.56 L 36 42.56 L 29 46.56 L 31 38.56 L 25 33.56 L 32.6 32.56 Z" fill="#efdfbb" stroke="#1d222b" stroke-width="1.8" stroke-linejoin="round" stroke-linecap="round"/><rect x="16" y="32.76" width="24" height="7" rx="3" fill="#6d737c" stroke="#1d222b" stroke-width="1.6"/><rect x="320" y="32.76" width="24" height="7" rx="3" fill="#6d737c" stroke="#1d222b" stroke-width="1.6"/></svg>